<svg width="112" height="30" viewBox="0 0 112 30" fill="none" xmlns="http://www.w3.org/2000/svg">
<path d="M8 15.5L11 18.5L16 12.5" stroke="#4C9C2E" stroke-width="2" stroke-linecap="round" stroke-linejoin="round"/>
<path d="M12 25C17.5228 25 22 20.5228 22 15C22 9.47715 17.5228 5 12 5C6.47715 5 2 9.47715 2 15C2 20.5228 6.47715 25 12 25Z" stroke="#4C9C2E" stroke-width="2"/>
<path d="M48.322 6.423V16.188H51.115V6.423H48.322ZM41.833 7.158V8.67C41.833 11.274 39.943 13.416 35.071 14.382L35.995 16.629C41.896 15.348 44.878 12.324 44.878 7.158H41.833ZM36.184 7.158V9.384H43.009V7.158H36.184ZM44.122 8.838V10.959H48.679V8.838H44.122ZM43.996 12.618V14.718H48.574V12.618H43.996ZM38.263 16.902V19.086H48.322V20.199H38.305V24.672H41.098V22.257H51.115V16.902H38.263ZM38.305 23.496V25.68H51.514V23.496H38.305ZM68.2074 6.423V25.869H70.8534V6.423H68.2074ZM61.8024 13.059V15.327H65.0154V13.059H61.8024ZM64.2804 6.738V24.987H66.8844V6.738H64.2804ZM57.6024 9.594V11.589C57.6024 14.907 56.6154 18.393 53.7594 20.178L55.4184 22.236C58.5054 20.304 59.7024 15.957 59.7024 11.589V9.594H57.6024ZM58.2324 9.594V11.589C58.2324 15.873 59.3664 19.947 62.4534 21.774L64.0914 19.737C61.2774 18.099 60.3114 14.823 60.3114 11.589V9.594H58.2324ZM54.4944 8.376V10.623H63.1674V8.376H54.4944ZM85.9507 6.423V25.869H88.7227V6.423H85.9507ZM88.0927 14.004V16.335H91.5367V14.004H88.0927ZM73.3927 9.3V11.526H84.7117V9.3H73.3927ZM79.0837 12.618C76.2487 12.618 74.1487 14.55 74.1487 17.259C74.1487 19.968 76.2487 21.9 79.0837 21.9C81.9187 21.9 84.0187 19.968 84.0187 17.259C84.0187 14.55 81.9187 12.618 79.0837 12.618ZM79.0837 14.886C80.4067 14.886 81.3517 15.768 81.3517 17.259C81.3517 18.75 80.4067 19.632 79.0837 19.632C77.7607 19.632 76.8157 18.75 76.8157 17.259C76.8157 15.768 77.7607 14.886 79.0837 14.886ZM77.6767 6.738V10.14H80.4697V6.738H77.6767ZM106.193 6.423V25.869H109.007V6.423H106.193ZM100.46 8.439V8.943C100.46 14.151 98.4441 17.679 92.8581 20.367L94.3071 22.593C101.216 19.254 103.232 14.382 103.232 8.439H100.46ZM93.8871 8.439V10.644H101.783V8.439H93.8871Z" fill="#4C9C2E"/>
</svg>
